<svg height="449pt" viewBox="0 0 449 449.41884" width="449pt" xmlns="http://www.w3.org/2000/svg"><path d="m390.363281 105.058594-101.601562-58.65625-84.863281 147.015625h144.65625l44.726562-77.4375c2.144531-3.832031.851562-8.671875-2.917969-10.921875zm0 0"/><path d="m185.433594 193.417969 89.464844-155.015625-27.679688-15.976563-98.753906 170.992188zm0 0"/><path d="m199.296875 3.988281-109.390625 189.429688h40.085938l103.359374-178.992188-23.140624-13.359375c-3.820313-2.199218-8.703126-.894531-10.914063 2.921875zm0 0"/><path d="m432.210938 361.417969h-88c-22.082032-.027344-39.976563-17.917969-40-40v-16c.023437-22.078125 17.917968-39.972657 40-40h88v-64c0-13.253907-10.746094-24-24-24h-31.9375l-9.246094 16h33.183594v16h-368v-16h39.199218l9.238282-16h-56.4375c-13.257813 0-24 10.746093-24 24v224c0 13.253906 10.742187 24 24 24h384c13.253906 0 24-10.746094 24-24zm0 0"/><path d="m448.210938 281.417969h-104c-13.257813 0-24 10.746093-24 24v16c0 13.253906 10.742187 24 24 24h104zm-96 56c-13.257813 0-24-10.746094-24-24 0-13.253907 10.742187-24 24-24 13.253906 0 24 10.746093 24 24 0 13.253906-10.746094 24-24 24zm0 0"/><path d="m360.210938 313.417969c0 4.417969-3.582032 8-8 8-4.417969 0-8-3.582031-8-8s3.582031-8 8-8c4.417968 0 8 3.582031 8 8zm0 0"/></svg>